<svg xmlns="http://www.w3.org/2000/svg" viewBox="0 0 512 512">
  <defs>
    <linearGradient id="grad" x1="0%" y1="0%" x2="100%" y2="100%">
      <stop offset="0%" style="stop-color:#7c3aed;stop-opacity:1" />
      <stop offset="100%" style="stop-color:#4f46e5;stop-opacity:1" />
    </linearGradient>
  </defs>
  <!-- Background circle -->
  <circle cx="256" cy="256" r="240" fill="url(#grad)"/>
  <!-- Map pin icon -->
  <path d="M256 96c-66.3 0-120 53.7-120 120 0 89.6 120 200 120 200s120-110.4 120-200c0-66.3-53.7-120-120-120zm0 160c-22.1 0-40-17.9-40-40s17.9-40 40-40 40 17.9 40 40-17.9 40-40 40z" fill="white"/>
  <!-- Decorative dots -->
  <circle cx="160" cy="380" r="12" fill="rgba(255,255,255,0.4)"/>
  <circle cx="352" cy="380" r="12" fill="rgba(255,255,255,0.4)"/>
  <circle cx="256" cy="420" r="8" fill="rgba(255,255,255,0.3)"/>
</svg>
