<svg width="800" height="600" viewBox="0 0 800 600" fill="none" xmlns="http://www.w3.org/2000/svg">
  <defs>
    <linearGradient id="bgGrad" x1="0%" y1="0%" x2="100%" y2="100%">
      <stop offset="0%" style="stop-color:#fff7ed"/>
      <stop offset="100%" style="stop-color:#ffedd5"/>
    </linearGradient>
  </defs>
  <rect width="800" height="600" fill="url(#bgGrad)"/>
  <pattern id="dots" x="0" y="0" width="30" height="30" patternUnits="userSpaceOnUse">
    <circle cx="3" cy="3" r="1.5" fill="#f97316" opacity="0.1"/>
  </pattern>
  <rect width="800" height="600" fill="url(#dots)"/>
  <!-- Utensils icon -->
  <g transform="translate(400, 260)">
    <!-- Fork -->
    <path d="M-40,-70 L-40,-30 M-55,-70 L-55,-30 M-25,-70 L-25,-30 M-55,-30 Q-55,0 -40,0 Q-25,0 -25,-30 M-40,0 L-40,70" stroke="#ea580c" stroke-width="6" stroke-linecap="round" fill="none"/>
    <!-- Knife -->
    <path d="M30,-70 C50,-70 55,-40 55,-20 C55,0 45,10 30,10 L30,70" stroke="#ea580c" stroke-width="6" stroke-linecap="round" fill="none"/>
  </g>
  <text x="400" y="400" text-anchor="middle" fill="#ea580c" font-family="system-ui, sans-serif" font-size="20" font-weight="500" opacity="0.7">Local Food Spot</text>
  <circle cx="100" cy="100" r="50" fill="#f97316" opacity="0.05"/>
  <circle cx="700" cy="500" r="70" fill="#ea580c" opacity="0.05"/>
</svg>
